<svg width="53" height="36" viewBox="0 0 53 36" fill="none" xmlns="http://www.w3.org/2000/svg">
<rect x="0.5" y="0.5" width="52" height="35" rx="3.5" fill="white" stroke="#F3F3F3"/>
<path d="M42.1928 9.67871H29.7561L28.4913 11.0813L24.3869 15.6325V15.6326L23.1221 17.0351H10.8497L12.095 15.6148L12.6844 14.9425L13.9297 13.5222H8.27495C7.24188 13.5222 6.39655 14.3759 6.39655 15.4192V19.422C6.39655 20.4654 7.24188 21.3191 8.27495 21.3191H29.9238C30.9569 21.3191 32.3681 20.6851 33.0599 19.9101L36.3346 16.2416L42.1928 9.67871Z" fill="#005697"/>
<path d="M44.6916 5.3999C45.7247 5.3999 46.57 6.25361 46.57 7.29707V11.2996C46.57 12.3429 45.7247 13.1968 44.6916 13.1968H39.0553L40.3123 11.7872H40.3125L40.9358 11.0883L42.1928 9.67879H29.7563L23.1222 17.0405H10.7737L19.6294 7.1784L19.9645 6.80517C20.6587 6.03224 22.0718 5.3999 23.1049 5.3999H44.6916V5.3999Z" fill="#FBD500"/>
<path fill-rule="evenodd" clip-rule="evenodd" d="M10.6298 28.1235C10.6298 27.8623 10.5672 27.636 10.4422 27.445C10.3171 27.254 10.1526 27.1083 9.94851 27.0078C10.1526 26.9072 10.3108 26.7588 10.4232 26.5628C10.5354 26.3668 10.5915 26.1457 10.5915 25.8995V25.7637C10.5915 25.4621 10.5328 25.2109 10.4155 25.0098C10.2981 24.8087 10.1334 24.6478 9.92165 24.5272C9.70992 24.4065 9.4559 24.32 9.16008 24.2671C8.86395 24.2143 8.5349 24.188 8.17248 24.188C8.05008 24.188 7.92244 24.1905 7.78987 24.1955C7.65698 24.2005 7.52823 24.2068 7.40328 24.2143C7.27819 24.2218 7.16326 24.2307 7.05882 24.2407C6.95407 24.2509 6.86855 24.2609 6.80227 24.2708C6.65428 24.2962 6.54968 24.3413 6.48848 24.4065C6.42729 24.472 6.39661 24.5902 6.39661 24.761V29.345C6.39661 29.516 6.4284 29.634 6.4923 29.6993C6.55604 29.7648 6.66445 29.8098 6.81768 29.835C6.89414 29.8501 6.98602 29.8626 7.09316 29.8728C7.2003 29.8828 7.31633 29.8916 7.44143 29.8991C7.56653 29.9066 7.69529 29.9129 7.82802 29.918C7.96075 29.9229 8.09078 29.9255 8.21842 29.9255C8.55016 29.9255 8.86267 29.9003 9.15627 29.8501C9.44955 29.8 9.70467 29.7106 9.92165 29.5824C10.1386 29.4543 10.3108 29.2808 10.4384 29.0623C10.5659 28.8436 10.6298 28.5683 10.6298 28.2366V28.1235ZM9.3284 25.9597C9.3284 26.0402 9.31569 26.1169 9.29009 26.1897C9.2645 26.2625 9.22254 26.3253 9.16388 26.3783C9.10507 26.4309 9.02607 26.4737 8.92656 26.5063C8.82705 26.539 8.70068 26.5553 8.5476 26.5553H7.69035V25.251C7.71578 25.251 7.75536 25.2499 7.80893 25.2472C7.8625 25.2447 7.91861 25.2435 7.97726 25.2435H8.27197C8.66491 25.2435 8.93927 25.2925 9.09489 25.3905C9.25051 25.4885 9.3284 25.6405 9.3284 25.8465V25.9597ZM9.1332 28.6965C9.28374 28.5809 9.35908 28.4175 9.35908 28.2064V28.1235C9.35908 27.9425 9.30027 27.7855 9.18296 27.6522C9.06549 27.5192 8.85376 27.4525 8.5476 27.4525H7.69035V28.8623H7.82419C7.88284 28.8623 7.94404 28.8638 8.00794 28.8662C8.07169 28.8687 8.13288 28.8701 8.1917 28.8701H8.31791C8.71085 28.8701 8.98267 28.8122 9.1332 28.6965ZM14.8247 27.0153C14.8247 26.7389 14.7826 26.5038 14.6983 26.3103C14.6142 26.1169 14.4955 25.9585 14.3424 25.8353C14.1893 25.7122 14.0018 25.6219 13.7797 25.564C13.5578 25.5062 13.309 25.4772 13.0334 25.4772C12.7781 25.4772 12.5293 25.4949 12.2871 25.5302C12.0445 25.5652 11.8519 25.6004 11.7091 25.6355C11.6122 25.6609 11.5637 25.716 11.5637 25.8013V26.412C11.5637 26.4625 11.5764 26.4977 11.602 26.5176C11.6274 26.5378 11.6605 26.5479 11.7015 26.5479H11.7396C11.801 26.5428 11.8775 26.5365 11.9693 26.529C12.0612 26.5215 12.1645 26.5154 12.2795 26.5101C12.3942 26.5052 12.5141 26.5014 12.6392 26.4988C12.7641 26.4963 12.8879 26.495 13.0105 26.495C13.189 26.495 13.3294 26.5277 13.4314 26.593C13.5335 26.6585 13.5845 26.7992 13.5845 27.0153V27.2867H13.1712C12.5128 27.2867 12.0343 27.3885 11.7358 27.592C11.4373 27.7956 11.288 28.1185 11.288 28.5608V28.6289C11.288 28.875 11.3251 29.0811 11.399 29.2468C11.4729 29.4128 11.5713 29.546 11.6937 29.6467C11.8163 29.7471 11.9552 29.8188 12.111 29.8613C12.2666 29.9041 12.4287 29.9255 12.5971 29.9255C12.8267 29.9255 13.0245 29.8953 13.1903 29.835C13.3561 29.7748 13.513 29.6918 13.6611 29.5863V29.7068C13.6611 29.7471 13.6764 29.7823 13.7071 29.8123C13.7377 29.8426 13.7733 29.8576 13.8142 29.8576H14.6716C14.7123 29.8576 14.7481 29.8426 14.7787 29.8123C14.8094 29.7823 14.8247 29.7471 14.8247 29.7068V27.0153ZM13.3128 28.9565C13.4173 28.924 13.5157 28.885 13.6076 28.8397V28.0104H13.1712C13.0385 28.0104 12.9288 28.0217 12.842 28.0443C12.7552 28.067 12.6862 28.1009 12.6354 28.1462C12.5843 28.1913 12.5486 28.2492 12.5282 28.3195C12.5077 28.3899 12.4976 28.4703 12.4976 28.5607V28.6289C12.4976 28.7895 12.537 28.8925 12.6161 28.9377C12.6953 28.983 12.8164 29.0055 12.9798 29.0055C13.0971 29.0055 13.2081 28.9894 13.3128 28.9565ZM19.5095 29.6993V27.1886C19.5095 26.9526 19.4904 26.73 19.4521 26.5215C19.4138 26.3131 19.345 26.132 19.2455 25.9785C19.146 25.8253 19.0082 25.7033 18.832 25.613C18.6561 25.5225 18.4302 25.4772 18.1546 25.4772C17.9096 25.4772 17.6926 25.5064 17.5039 25.5646C17.3151 25.6228 17.1161 25.7254 16.9069 25.8722V25.6895C16.9069 25.6491 16.8915 25.6136 16.861 25.5832C16.8303 25.5529 16.7945 25.5375 16.7537 25.5375H15.8964C15.8554 25.5375 15.8198 25.5525 15.7893 25.5828C15.7586 25.613 15.7433 25.6482 15.7433 25.6883V29.6993C15.7433 29.7395 15.7597 29.776 15.7931 29.8086C15.8261 29.8413 15.8632 29.8576 15.904 29.8576H16.8303C16.8711 29.8576 16.9069 29.8413 16.9374 29.8087C16.9681 29.7762 16.9834 29.7398 16.9834 29.6996V26.7357C17.1161 26.6655 17.241 26.6079 17.3585 26.5628C17.4758 26.5176 17.5906 26.495 17.703 26.495C17.8203 26.495 17.916 26.5063 17.99 26.529C18.0639 26.5515 18.1213 26.5904 18.1622 26.6458C18.203 26.7007 18.2312 26.7734 18.2464 26.8636C18.2617 26.9539 18.2695 27.0643 18.2695 27.1947V29.6996C18.2695 29.7398 18.2847 29.7762 18.3154 29.8087C18.3459 29.8413 18.3815 29.8576 18.4226 29.8576H19.3488C19.3895 29.8576 19.4265 29.8413 19.4598 29.8086C19.493 29.776 19.5095 29.7395 19.5095 29.6993ZM23.2758 28.9682V29.639C23.2758 29.6943 23.2629 29.7333 23.2375 29.7558C23.2119 29.7785 23.1711 29.7973 23.115 29.8123C23.0078 29.8375 22.8687 29.8626 22.6979 29.888C22.5268 29.9128 22.3265 29.9255 22.0968 29.9255C21.5559 29.9255 21.1234 29.7622 20.7994 29.4353C20.4753 29.1088 20.3133 28.6363 20.3133 28.018V27.3847C20.3133 26.7665 20.4753 26.294 20.7994 25.9674C21.1234 25.6405 21.5559 25.4772 22.0968 25.4772C22.3265 25.4772 22.5268 25.4898 22.6979 25.5148C22.8687 25.5402 23.0078 25.5652 23.115 25.5903C23.1711 25.6053 23.2119 25.6242 23.2375 25.6468C23.2629 25.6695 23.2758 25.7085 23.2758 25.7637V26.4347C23.2758 26.475 23.2617 26.5063 23.2337 26.529C23.2056 26.5515 23.1711 26.5628 23.1304 26.5628H23.115C22.9721 26.5479 22.8357 26.5353 22.7055 26.5252C22.5753 26.5154 22.4004 26.5101 22.1811 26.5101C22.0943 26.5101 22.0127 26.524 21.9361 26.5515C21.8595 26.5793 21.7932 26.627 21.7371 26.6948C21.6808 26.7627 21.6363 26.8531 21.6031 26.9663C21.5699 27.0793 21.5534 27.2188 21.5534 27.3847V28.018C21.5534 28.1838 21.5699 28.3233 21.6031 28.4365C21.6363 28.5495 21.6808 28.64 21.7371 28.7078C21.7932 28.7758 21.8595 28.8235 21.9361 28.8511C22.0127 28.8788 22.0943 28.8926 22.1811 28.8926C22.4004 28.8926 22.5753 28.8875 22.7055 28.8775C22.8357 28.8675 22.9721 28.8548 23.115 28.8398H23.1304C23.1711 28.8398 23.2056 28.8511 23.2337 28.8738C23.2617 28.8965 23.2758 28.9278 23.2758 28.9682ZM27.5244 27.4375C27.5244 27.1358 27.4822 26.8645 27.3978 26.6232C27.3134 26.382 27.1906 26.1772 27.0296 26.0088C26.8686 25.8405 26.6691 25.7097 26.4315 25.6167C26.1937 25.5239 25.9187 25.4772 25.6068 25.4772C25.2949 25.4772 25.0201 25.5239 24.7823 25.6167C24.5445 25.7097 24.3437 25.8405 24.1801 26.0088C24.0164 26.1772 23.8924 26.382 23.8082 26.6232C23.7236 26.8645 23.6815 27.1358 23.6815 27.4375V27.9653C23.6815 28.2668 23.7236 28.5383 23.8082 28.7795C23.8924 29.0208 24.0164 29.2256 24.1801 29.394C24.3437 29.5625 24.5445 29.693 24.7823 29.786C25.0201 29.8789 25.2949 29.9255 25.6068 29.9255C25.9187 29.9255 26.1937 29.8789 26.4315 29.786C26.6691 29.693 26.8686 29.5625 27.0296 29.394C27.1906 29.2256 27.3134 29.0208 27.3978 28.7795C27.4822 28.5383 27.5244 28.2668 27.5244 27.9653V27.4375ZM25.6068 28.8925C26.0584 28.8925 26.2843 28.5834 26.2843 27.9652V27.4374C26.2843 26.8242 26.0584 26.5175 25.6068 26.5175C25.3834 26.5175 25.2135 26.5942 25.0968 26.7475C24.98 26.9009 24.9217 27.1309 24.9217 27.4374V27.9652C24.9217 28.2717 24.98 28.503 25.0968 28.6587C25.2135 28.8147 25.3834 28.8925 25.6068 28.8925ZM32.0791 29.6993V27.1886C32.0791 26.9526 32.0597 26.73 32.0217 26.5215C31.9834 26.3131 31.9144 26.132 31.8147 25.9785C31.7152 25.8253 31.5775 25.7033 31.4016 25.613C31.2255 25.5225 30.9996 25.4772 30.7241 25.4772C30.4791 25.4772 30.2622 25.5064 30.0733 25.5646C29.8845 25.6228 29.6855 25.7254 29.4763 25.8722V25.6895C29.4763 25.6491 29.461 25.6136 29.4302 25.5832C29.3998 25.5529 29.3639 25.5375 29.3232 25.5375H28.4658C28.4249 25.5375 28.3893 25.5525 28.3587 25.5828C28.3281 25.613 28.3127 25.6482 28.3127 25.6883V29.6993C28.3127 29.7395 28.3292 29.776 28.3625 29.8086C28.3957 29.8413 28.4326 29.8576 28.4736 29.8576H29.3998C29.4405 29.8576 29.4763 29.8413 29.507 29.8087C29.5375 29.7762 29.5529 29.7398 29.5529 29.6996V26.7357C29.6855 26.6655 29.8106 26.6079 29.9279 26.5628C30.0454 26.5176 30.1601 26.495 30.2725 26.495C30.3898 26.495 30.4855 26.5063 30.5594 26.529C30.6333 26.5515 30.6909 26.5904 30.7317 26.6458C30.7726 26.7007 30.8006 26.7734 30.816 26.8636C30.8312 26.9539 30.8389 27.0643 30.8389 27.1947V29.6996C30.8389 29.7398 30.8541 29.7762 30.8848 29.8087C30.9155 29.8413 30.9511 29.8576 30.9919 29.8576H31.9182C31.959 29.8576 31.9961 29.8413 32.0293 29.8086C32.0624 29.776 32.0791 29.7395 32.0791 29.6993ZM35.4167 29.1327V29.7162C35.4167 29.8009 35.3682 29.8508 35.2713 29.8655C35.1538 29.8856 35.0517 29.9004 34.9651 29.9104C34.8783 29.9205 34.7787 29.9255 34.6666 29.9255C34.4584 29.9255 34.2744 29.909 34.1147 29.8765C33.9549 29.8438 33.8216 29.7797 33.7151 29.6842C33.6087 29.5887 33.5275 29.4567 33.4717 29.2883C33.4161 29.12 33.3881 28.9028 33.3881 28.6362V26.4499L32.7758 26.3517C32.7348 26.3417 32.6979 26.3229 32.6647 26.2952C32.6314 26.2677 32.6149 26.2337 32.6149 26.1934V25.6957C32.6149 25.6557 32.6314 25.6192 32.6647 25.5865C32.6979 25.5539 32.7348 25.5375 32.7758 25.5375H33.3881V24.9192C33.3881 24.879 33.4033 24.8464 33.4337 24.8212C33.4639 24.7962 33.4997 24.7786 33.5404 24.7685L34.4685 24.6103H34.4913C34.5318 24.6103 34.5649 24.6214 34.5903 24.644C34.6156 24.6667 34.6283 24.6982 34.6283 24.7382V25.5375H35.256C35.2967 25.5375 35.3325 25.5527 35.3631 25.583C35.3938 25.6134 35.4091 25.6491 35.4091 25.6895V26.3052C35.4091 26.3459 35.3938 26.3813 35.3631 26.4117C35.3325 26.4421 35.2967 26.4572 35.256 26.4572H34.6283V28.6513C34.6283 28.802 34.641 28.8989 34.6666 28.9415C34.692 28.9843 34.7634 29.0055 34.8807 29.0055H35.256C35.3631 29.0055 35.4167 29.048 35.4167 29.1327ZM39.5043 27.0153C39.5043 26.7389 39.4623 26.5038 39.3779 26.3103C39.2938 26.1169 39.1752 25.9585 39.0222 25.8353C38.8691 25.7122 38.6815 25.6219 38.4595 25.564C38.2376 25.5062 37.9888 25.4772 37.7132 25.4772C37.4577 25.4772 37.2091 25.4949 36.9669 25.5302C36.7243 25.5652 36.5316 25.6004 36.3889 25.6355C36.2916 25.6609 36.2434 25.716 36.2434 25.8013V26.412C36.2434 26.4625 36.256 26.4977 36.2816 26.5176C36.3072 26.5378 36.3402 26.5479 36.3811 26.5479H36.4194C36.4808 26.5428 36.5572 26.5365 36.6491 26.529C36.741 26.5215 36.8443 26.5154 36.9591 26.5101C37.074 26.5052 37.1938 26.5014 37.3189 26.4988C37.4439 26.4963 37.5677 26.495 37.6901 26.495C37.8688 26.495 38.0091 26.5277 38.1112 26.593C38.2132 26.6585 38.2643 26.7992 38.2643 27.0153V27.2867H37.851C37.1924 27.2867 36.7141 27.3885 36.4156 27.592C36.1171 27.7956 35.9678 28.1185 35.9678 28.5608V28.6289C35.9678 28.875 36.0047 29.0811 36.0788 29.2468C36.1525 29.4128 36.2511 29.546 36.3735 29.6467C36.496 29.7471 36.6349 29.8188 36.7907 29.8613C36.9463 29.9041 37.1083 29.9255 37.2768 29.9255C37.5065 29.9255 37.7041 29.8953 37.87 29.835C38.0358 29.7748 38.1926 29.6918 38.3409 29.5863V29.7068C38.3409 29.7471 38.3561 29.7823 38.3868 29.8123C38.4173 29.8426 38.4531 29.8576 38.494 29.8576H39.3514C39.3921 29.8576 39.4278 29.8426 39.4585 29.8123C39.489 29.7823 39.5043 29.7471 39.5043 29.7068V27.0153ZM37.9926 28.9565C38.097 28.924 38.1954 28.885 38.2873 28.8397V28.0104H37.851C37.7183 28.0104 37.6086 28.0217 37.5218 28.0443C37.435 28.067 37.366 28.1009 37.3151 28.1462C37.264 28.1913 37.2282 28.2492 37.208 28.3195C37.1875 28.3899 37.1773 28.4703 37.1773 28.5607V28.6289C37.1773 28.7895 37.2167 28.8925 37.2959 28.9377C37.3751 28.983 37.4962 29.0055 37.6596 29.0055C37.7769 29.0055 37.8877 28.9894 37.9926 28.9565ZM43.2706 29.639V28.9682C43.2706 28.9278 43.2565 28.8965 43.2285 28.8738C43.2003 28.8511 43.166 28.8398 43.1252 28.8398H43.1099C42.967 28.8548 42.8305 28.8675 42.7003 28.8775C42.5702 28.8875 42.3954 28.8926 42.176 28.8926C42.0891 28.8926 42.0074 28.8788 41.9311 28.8511C41.8545 28.8235 41.788 28.7758 41.7319 28.7078C41.6758 28.64 41.6311 28.5495 41.5981 28.4365C41.5647 28.3233 41.5483 28.1838 41.5483 28.018V27.3847C41.5483 27.2188 41.5647 27.0793 41.5981 26.9663C41.6311 26.8531 41.6758 26.7627 41.7319 26.6948C41.788 26.627 41.8545 26.5793 41.9311 26.5515C42.0074 26.524 42.0891 26.5101 42.176 26.5101C42.3954 26.5101 42.5702 26.5154 42.7003 26.5252C42.8305 26.5353 42.967 26.5479 43.1099 26.5628H43.1252C43.166 26.5628 43.2003 26.5515 43.2285 26.529C43.2565 26.5063 43.2706 26.475 43.2706 26.4347V25.7637C43.2706 25.7085 43.2579 25.6695 43.2323 25.6468C43.2065 25.6242 43.166 25.6053 43.1099 25.5903C43.0028 25.5652 42.8635 25.5402 42.6926 25.5148C42.5216 25.4898 42.3215 25.4772 42.0918 25.4772C41.5505 25.4772 41.1183 25.6405 40.7942 25.9674C40.4701 26.294 40.3081 26.7665 40.3081 27.3847V28.018C40.3081 28.6363 40.4701 29.1088 40.7942 29.4353C41.1183 29.7622 41.5505 29.9255 42.0918 29.9255C42.3215 29.9255 42.5216 29.9128 42.6926 29.888C42.8635 29.8626 43.0028 29.8375 43.1099 29.8123C43.166 29.7973 43.2065 29.7785 43.2323 29.7558C43.2579 29.7333 43.2706 29.6943 43.2706 29.639ZM46.5699 29.1327V29.7162C46.5699 29.8009 46.5213 29.8508 46.4245 29.8655C46.307 29.8856 46.205 29.9004 46.1183 29.9104C46.0314 29.9205 45.9319 29.9255 45.8198 29.9255C45.6116 29.9255 45.4277 29.909 45.2679 29.8765C45.108 29.8438 44.9748 29.7797 44.8685 29.6842C44.762 29.5887 44.6807 29.4567 44.6249 29.2883C44.5693 29.12 44.5413 28.9028 44.5413 28.6362V26.4499L43.929 26.3517C43.888 26.3417 43.8511 26.3229 43.8179 26.2952C43.7847 26.2677 43.7682 26.2337 43.7682 26.1934V25.6957C43.7682 25.6557 43.7847 25.6192 43.8179 25.5865C43.8511 25.5539 43.888 25.5375 43.929 25.5375H44.5413V24.9192C44.5413 24.879 44.5566 24.8464 44.587 24.8212C44.6172 24.7962 44.6528 24.7786 44.6935 24.7685L45.6216 24.6103H45.6445C45.685 24.6103 45.7181 24.6214 45.7432 24.644C45.7688 24.6667 45.7815 24.6982 45.7815 24.7382V25.5375H46.4092C46.4499 25.5375 46.4857 25.5527 46.5164 25.583C46.5469 25.6134 46.5623 25.6491 46.5623 25.6895V26.3052C46.5623 26.3459 46.5469 26.3813 46.5164 26.4117C46.4857 26.4421 46.4499 26.4572 46.4092 26.4572H45.7815V28.6513C45.7815 28.802 45.7942 28.8989 45.8198 28.9415C45.8453 28.9843 45.9166 29.0055 46.0341 29.0055H46.4092C46.5164 29.0055 46.5699 29.048 46.5699 29.1327Z" fill="#005697"/>
</svg>
