<svg width="53" height="37" viewBox="0 0 53 37" fill="none" xmlns="http://www.w3.org/2000/svg">
<rect x="0.5" y="0.5" width="52" height="36" rx="3.5" fill="white" stroke="#F3F3F3"/>
<path fill-rule="evenodd" clip-rule="evenodd" d="M17.97 14.9616C18.3411 14.9616 18.6612 15.0284 18.9305 15.16C19.2009 15.2927 19.4244 15.4715 19.6034 15.6963C19.78 15.9223 19.9115 16.1866 19.9964 16.4891C20.0808 16.7928 20.1231 17.119 20.1231 17.4685C20.1231 18.0048 20.0256 18.5121 19.8283 18.99C19.6314 19.4684 19.3638 19.8836 19.0237 20.2376C18.6838 20.5915 18.2825 20.8701 17.8197 21.076C17.3574 21.2824 16.8552 21.3851 16.3158 21.3851C16.246 21.3851 16.1234 21.3834 15.9502 21.3794C15.777 21.3759 15.5777 21.3581 15.3547 21.3276C15.1304 21.2962 14.8931 21.2496 14.6424 21.1871C14.392 21.1258 14.1542 21.0397 13.9301 20.9306L15.9327 12.4559L17.7265 12.1758L17.0095 15.183C17.1631 15.1133 17.3177 15.0592 17.4721 15.0201C17.6273 14.9821 17.7928 14.9616 17.97 14.9616ZM16.4656 19.9523C16.7357 19.9523 16.9901 19.8855 17.2294 19.754C17.4692 19.6227 17.6762 19.4451 17.8494 19.2237C18.0226 19.0017 18.1601 18.7513 18.2602 18.4715C18.3602 18.1919 18.4108 17.9003 18.4108 17.5966C18.4108 17.2238 18.3491 16.9327 18.2256 16.7226C18.1021 16.513 17.874 16.4079 17.5424 16.4079C17.4338 16.4079 17.2937 16.4286 17.1202 16.4658C16.9461 16.5058 16.7903 16.5878 16.6505 16.7113L15.887 19.9054C15.933 19.9132 15.9739 19.9212 16.0085 19.9284C16.0425 19.9362 16.08 19.942 16.1174 19.946C16.1571 19.9506 16.2023 19.9526 16.2569 19.9526C16.3115 19.9526 16.3807 19.9523 16.4656 19.9523Z" fill="#4D4D4D"/>
<path fill-rule="evenodd" clip-rule="evenodd" d="M21.984 21.2226H20.2706L21.7176 15.091H23.4427L21.984 21.2226ZM22.8175 14.3444C22.5783 14.3444 22.3616 14.2724 22.1692 14.1291C21.9751 13.9863 21.8791 13.7664 21.8791 13.4701C21.8791 13.3072 21.9119 13.154 21.9771 13.0101C22.0431 12.8661 22.1298 12.7418 22.2381 12.6367C22.3464 12.5322 22.4716 12.4487 22.614 12.3857C22.7572 12.3238 22.9096 12.293 23.0719 12.293C23.3109 12.293 23.5267 12.3647 23.7197 12.5083C23.9121 12.6525 24.009 12.8725 24.009 13.167C24.009 13.3305 23.9764 13.4842 23.9103 13.6282C23.8449 13.7721 23.7586 13.8959 23.6502 14.0016C23.543 14.1061 23.4164 14.1893 23.2743 14.2517C23.1311 14.3145 22.9796 14.3444 22.8175 14.3444Z" fill="#4D4D4D"/>
<path fill-rule="evenodd" clip-rule="evenodd" d="M24.9437 13.5638L26.7383 13.2837L26.2975 15.0907H28.2193L27.8722 16.5126H25.9619L25.4531 18.6576C25.4062 18.8364 25.3796 19.0033 25.3722 19.1582C25.3639 19.3143 25.3833 19.4481 25.4296 19.5607C25.4757 19.6735 25.5585 19.7605 25.6786 19.8224C25.7981 19.8848 25.9693 19.9162 26.1934 19.9162C26.3781 19.9162 26.5582 19.8987 26.7323 19.8632C26.9052 19.829 27.0807 19.7806 27.2582 19.7176L27.386 21.0473C27.1545 21.1328 26.9038 21.2065 26.6336 21.2684C26.3632 21.3309 26.0428 21.3611 25.6726 21.3611C25.1403 21.3611 24.7276 21.2819 24.4337 21.1233C24.1401 20.9635 23.9326 20.7456 23.8083 20.4695C23.6856 20.1946 23.631 19.8774 23.6465 19.5201C23.6625 19.162 23.7159 18.7854 23.8083 18.389L24.9437 13.5638Z" fill="#4D4D4D"/>
<path fill-rule="evenodd" clip-rule="evenodd" d="M28.1438 18.7749C28.1438 18.2466 28.2287 17.7489 28.3985 17.2822C28.5677 16.8156 28.8118 16.4076 29.1286 16.0573C29.4441 15.7086 29.8283 15.4326 30.2806 15.2302C30.7308 15.0284 31.2347 14.9268 31.7904 14.9268C32.138 14.9268 32.4488 14.9596 32.722 15.0261C32.9964 15.0929 33.2449 15.1795 33.4692 15.2881L32.8784 16.6414C32.724 16.5783 32.5637 16.5228 32.3982 16.4721C32.2324 16.4209 32.03 16.3961 31.7907 16.3961C31.219 16.3961 30.7668 16.5945 30.4303 16.99C30.0953 17.3861 29.9264 17.919 29.9264 18.5878C29.9264 18.9842 30.0113 19.3043 30.1816 19.5496C30.3512 19.7946 30.6642 19.9163 31.119 19.9163C31.3434 19.9163 31.5597 19.8927 31.7673 19.8467C31.9762 19.8 32.1606 19.7416 32.3233 19.6719L32.451 21.0589C32.2344 21.1439 31.9954 21.2204 31.7333 21.2872C31.4706 21.352 31.1578 21.3851 30.7951 21.3851C30.3166 21.3851 29.9112 21.3149 29.5799 21.1758C29.2483 21.0348 28.9742 20.8474 28.7584 20.6101C28.5414 20.3723 28.3856 20.0945 28.2893 19.7759C28.1927 19.4583 28.1438 19.1238 28.1438 18.7749H28.1438Z" fill="#4D4D4D"/>
<path fill-rule="evenodd" clip-rule="evenodd" d="M35.7544 21.3858C35.3453 21.3858 34.9903 21.3233 34.689 21.1993C34.3886 21.0749 34.1399 20.9007 33.9429 20.6747C33.746 20.4499 33.5982 20.1833 33.4973 19.8764C33.3961 19.5698 33.3478 19.2299 33.3478 18.8576C33.3478 18.3904 33.4224 17.9234 33.5727 17.4576C33.7225 16.9913 33.9446 16.5721 34.2391 16.1993C34.5309 15.8259 34.8908 15.5208 35.315 15.2827C35.7384 15.0466 36.2257 14.9277 36.7729 14.9277C37.1742 14.9277 37.5278 14.9905 37.8331 15.1146C38.137 15.2389 38.3874 15.4143 38.5855 15.6391C38.7813 15.8651 38.9302 16.1305 39.0303 16.438C39.1312 16.744 39.1806 17.0848 39.1806 17.4574C39.1806 17.9232 39.1071 18.3901 38.9614 18.8573C38.8153 19.322 38.5989 19.7423 38.313 20.1157C38.0278 20.4885 37.671 20.7933 37.2425 21.0306C36.814 21.2672 36.3175 21.3858 35.7544 21.3858ZM36.6105 16.3968C36.3564 16.3968 36.132 16.4711 35.9396 16.6179C35.7467 16.7662 35.5846 16.9527 35.4539 17.1776C35.3219 17.4033 35.2238 17.6503 35.1578 17.9177C35.0923 18.1863 35.06 18.4399 35.06 18.6812C35.06 19.0701 35.1224 19.373 35.2447 19.5912C35.369 19.808 35.592 19.9171 35.9165 19.9171C36.1714 19.9171 36.3947 19.8434 36.5882 19.6951C36.78 19.548 36.9421 19.3615 37.0739 19.136C37.2051 18.9115 37.304 18.6639 37.37 18.3959C37.4349 18.1282 37.4678 17.8731 37.4678 17.6324C37.4678 17.2444 37.4058 16.9409 37.2823 16.723C37.1588 16.5057 36.9347 16.3968 36.6105 16.3968Z" fill="#4D4D4D"/>
<path fill-rule="evenodd" clip-rule="evenodd" d="M41.0473 21.2226H39.3327L40.7797 15.091H42.5057L41.0473 21.2226ZM41.8797 14.3444C41.6407 14.3444 41.424 14.2724 41.2319 14.1291C41.0387 13.9863 40.9418 13.7664 40.9418 13.4701C40.9418 13.3072 40.9749 13.154 41.0404 13.0101C41.1058 12.8661 41.1927 12.7418 41.3011 12.6367C41.4089 12.5322 41.5352 12.4487 41.6773 12.3857C41.8196 12.3238 41.972 12.293 42.1341 12.293C42.3736 12.293 42.59 12.3647 42.7827 12.5083C42.9756 12.6525 43.0728 12.8725 43.0728 13.167C43.0728 13.3305 43.0382 13.4842 42.9733 13.6282C42.9084 13.7721 42.8218 13.8959 42.7138 14.0016C42.6051 14.1061 42.4805 14.1893 42.3382 14.2517C42.1947 14.3145 42.0426 14.3444 41.8797 14.3444Z" fill="#4D4D4D"/>
<path fill-rule="evenodd" clip-rule="evenodd" d="M43.7394 15.3702C43.8695 15.3319 44.0147 15.2859 44.1728 15.2358C44.3314 15.1857 44.5084 15.139 44.7062 15.097C44.902 15.0538 45.1227 15.019 45.3656 14.9914C45.6086 14.9637 45.885 14.9502 46.1929 14.9502C47.0962 14.9502 47.7193 15.215 48.0632 15.7436C48.4065 16.2722 48.4663 16.9953 48.243 17.9116L47.4552 21.2223H45.7307L46.4945 17.9813C46.5408 17.7789 46.5776 17.5832 46.6045 17.392C46.632 17.2029 46.6302 17.0359 46.5985 16.8914C46.5685 16.7486 46.4965 16.632 46.3853 16.5413C46.2721 16.4518 46.1011 16.4075 45.8693 16.4075C45.646 16.4075 45.4188 16.4316 45.1867 16.4783L44.0636 21.2223H42.3384L43.7394 15.3702Z" fill="#4D4D4D"/>
<path fill-rule="evenodd" clip-rule="evenodd" d="M23.0388 24.8768L22.7027 25.4917H22.3391C22.5952 25.0265 22.845 24.5981 23.0886 24.2066C23.3321 23.8151 23.5728 23.4454 23.8106 23.0977H24.1365C24.1708 23.2704 24.2022 23.4451 24.2308 23.621C24.2594 23.7972 24.2874 23.982 24.3149 24.1755C24.3423 24.3689 24.3686 24.5742 24.3938 24.7907C24.4189 25.0072 24.4452 25.2407 24.4727 25.492H24.1365C24.1251 25.3883 24.1148 25.2841 24.1056 25.1793C24.0965 25.0745 24.0862 24.9738 24.0748 24.8771H23.0388V24.8768ZM24.0439 24.607C24.0256 24.4208 24.0044 24.2351 23.9804 24.0509C23.9564 23.8666 23.9284 23.6766 23.8964 23.4808C23.8163 23.5983 23.7169 23.75 23.5979 23.9351C23.479 24.1208 23.3441 24.3445 23.1932 24.607H24.0439Z" fill="#4D4D4D"/>
<path fill-rule="evenodd" clip-rule="evenodd" d="M25.6884 25.5431C25.5398 25.5431 25.4088 25.5212 25.2956 25.4775C25.1824 25.4337 25.0881 25.3715 25.0127 25.2909C24.9372 25.2106 24.8806 25.113 24.8429 24.999C24.8051 24.885 24.7863 24.7566 24.7863 24.6138C24.7863 24.4066 24.8188 24.2085 24.884 24.0196C24.9492 23.8311 25.0418 23.6641 25.1619 23.519C25.2819 23.3739 25.4266 23.2582 25.5958 23.1715C25.765 23.0852 25.9534 23.042 26.1618 23.042C26.3402 23.042 26.4825 23.0604 26.5888 23.0973C26.6952 23.1341 26.7712 23.1687 26.817 23.2009L26.6797 23.4773C26.6269 23.4427 26.5557 23.4099 26.4654 23.3788C26.375 23.348 26.2681 23.3322 26.1446 23.3322C25.9868 23.3322 25.8451 23.3696 25.7193 23.4447C25.5935 23.5196 25.4872 23.6163 25.4003 23.7349C25.3134 23.8535 25.2471 23.9871 25.2013 24.1357C25.1556 24.2842 25.1327 24.431 25.1327 24.5761C25.1327 25.0252 25.3259 25.2498 25.7124 25.2498C25.7947 25.2498 25.8685 25.2437 25.9337 25.2322C25.9988 25.221 26.0566 25.2074 26.1069 25.1925C26.1572 25.1775 26.2018 25.1611 26.2407 25.1424C26.2796 25.124 26.3139 25.1078 26.3436 25.094L26.3847 25.3842C26.3573 25.4003 26.3213 25.4176 26.2767 25.436C26.2321 25.4544 26.1801 25.4717 26.1206 25.4881C26.0612 25.5043 25.9948 25.5175 25.9217 25.5279C25.8485 25.5382 25.7707 25.5431 25.6884 25.5431Z" fill="#4D4D4D"/>
<path fill-rule="evenodd" clip-rule="evenodd" d="M27.6156 25.5431C27.4669 25.5431 27.336 25.5212 27.2228 25.4775C27.1096 25.4337 27.0153 25.3715 26.9398 25.2909C26.8644 25.2106 26.8078 25.113 26.77 24.999C26.7323 24.885 26.7134 24.7566 26.7134 24.6138C26.7134 24.4066 26.746 24.2085 26.8112 24.0196C26.8764 23.8311 26.969 23.6641 27.0891 23.519C27.2091 23.3739 27.3538 23.2582 27.523 23.1715C27.6922 23.0852 27.8806 23.042 28.089 23.042C28.2673 23.042 28.4097 23.0604 28.516 23.0973C28.6224 23.1341 28.6984 23.1687 28.7441 23.2009L28.6069 23.4773C28.554 23.4427 28.4829 23.4099 28.3925 23.3788C28.3022 23.348 28.1953 23.3322 28.0718 23.3322C27.914 23.3322 27.7722 23.3696 27.6465 23.4447C27.5207 23.5196 27.4144 23.6163 27.3275 23.7349C27.2406 23.8535 27.1742 23.9871 27.1285 24.1357C27.0828 24.2842 27.0599 24.431 27.0599 24.5761C27.0599 25.0252 27.2531 25.2498 27.6396 25.2498C27.7219 25.2498 27.7957 25.2437 27.8609 25.2322C27.926 25.221 27.9838 25.2074 28.0341 25.1925C28.0844 25.1775 28.129 25.1611 28.1679 25.1424C28.2067 25.124 28.241 25.1078 28.2708 25.094L28.3119 25.3842C28.2845 25.4003 28.2485 25.4176 28.2039 25.436C28.1593 25.4544 28.1073 25.4717 28.0478 25.4881C27.9883 25.5043 27.922 25.5175 27.8488 25.5279C27.7757 25.5382 27.6979 25.5431 27.6156 25.5431Z" fill="#4D4D4D"/>
<path fill-rule="evenodd" clip-rule="evenodd" d="M28.5366 25.4912L29.106 23.0972H30.509L30.4438 23.377H29.3702L29.1987 24.099H30.1523L30.0871 24.3719H29.1369L28.9345 25.2114H30.0871L30.0219 25.4912H28.5366H28.5366Z" fill="#4D4D4D"/>
<path fill-rule="evenodd" clip-rule="evenodd" d="M31.5021 23.0732C31.7788 23.0732 31.9874 23.1262 32.1281 23.2322C32.2687 23.3381 32.339 23.4924 32.339 23.6951C32.339 23.8517 32.3099 23.9873 32.2516 24.101C32.1933 24.215 32.1104 24.3088 32.0029 24.3828C31.8954 24.4565 31.7662 24.5109 31.6153 24.5466C31.4643 24.5823 31.2962 24.6005 31.111 24.6005H30.8743L30.6617 25.4917H30.3289L30.8915 23.1288C30.9875 23.1058 31.0893 23.0908 31.1968 23.0839C31.3042 23.0767 31.406 23.0732 31.5021 23.0732ZM31.4609 23.3566C31.2985 23.3566 31.2002 23.3612 31.1659 23.3704L30.9395 24.3204H31.1556C31.2517 24.3204 31.35 24.3121 31.4506 24.2945C31.5512 24.2772 31.6416 24.2467 31.7216 24.2033C31.8017 24.1595 31.8674 24.099 31.9189 24.0216C31.9703 23.9445 31.996 23.8451 31.996 23.7231C31.996 23.5918 31.948 23.4979 31.852 23.4412C31.7559 23.3848 31.6256 23.3566 31.4609 23.3566Z" fill="#4D4D4D"/>
<path fill-rule="evenodd" clip-rule="evenodd" d="M34.3683 23.0972L34.3031 23.377H33.5862L33.082 25.4912H32.7492L33.2535 23.377H32.5366L32.6017 23.0972H34.3683Z" fill="#4D4D4D"/>
<path fill-rule="evenodd" clip-rule="evenodd" d="M34.0596 25.4912L34.629 23.0972H36.032L35.9668 23.377H34.8932L34.7217 24.099H35.6753L35.6101 24.3719H34.6599L34.4575 25.2114H35.6101L35.5449 25.4912H34.0596H34.0596Z" fill="#4D4D4D"/>
<path fill-rule="evenodd" clip-rule="evenodd" d="M37.0199 23.0732C37.3721 23.0732 37.6351 23.1567 37.8089 23.3237C37.9827 23.4907 38.0696 23.7158 38.0696 23.9991C38.0696 24.1971 38.0387 24.3877 37.9769 24.5705C37.9152 24.7539 37.8192 24.9154 37.6888 25.0562C37.5585 25.1964 37.3921 25.3084 37.1897 25.3913C36.9873 25.4742 36.7455 25.5156 36.4642 25.5156C36.3682 25.5156 36.2641 25.511 36.1521 25.5018C36.04 25.4926 35.9417 25.4765 35.8571 25.4535L36.4093 23.1285C36.5054 23.1055 36.6071 23.0905 36.7146 23.0836C36.8221 23.0767 36.9239 23.0732 37.0199 23.0732ZM36.9925 23.3566C36.821 23.3566 36.7181 23.3612 36.6838 23.3704L36.2447 25.2152C36.263 25.2198 36.2939 25.2238 36.3373 25.2273C36.3808 25.2307 36.4516 25.2324 36.55 25.2324C36.7306 25.2324 36.8936 25.2022 37.0388 25.1412C37.184 25.0801 37.3069 24.9949 37.4075 24.8853C37.5082 24.7759 37.5859 24.646 37.6408 24.4952C37.6957 24.3443 37.7231 24.1791 37.7231 23.9994C37.7231 23.7968 37.6648 23.639 37.5482 23.5259C37.4315 23.4133 37.2463 23.3566 36.9925 23.3566Z" fill="#4D4D4D"/>
<path fill-rule="evenodd" clip-rule="evenodd" d="M40.6319 25.4912H40.2992L40.5633 24.3788H39.4622L39.1981 25.4912H38.8654L39.4348 23.0972H39.7675L39.5274 24.099H40.6288L40.8689 23.0972H41.2016L40.6319 25.4912Z" fill="#4D4D4D"/>
<path fill-rule="evenodd" clip-rule="evenodd" d="M41.1568 25.4912L41.7262 23.0972H43.1292L43.0637 23.377H41.9901L41.8186 24.099H42.7722L42.7067 24.3719H41.7565L41.5544 25.2114H42.7067L42.6412 25.4912H41.1568H41.1568Z" fill="#4D4D4D"/>
<path fill-rule="evenodd" clip-rule="evenodd" d="M44.1222 23.0732C44.376 23.0732 44.5773 23.1251 44.7259 23.2287C44.8745 23.3323 44.9486 23.4843 44.9486 23.6844C44.9486 23.8871 44.89 24.0572 44.7722 24.1943C44.6544 24.3313 44.4892 24.4297 44.2765 24.4893C44.304 24.538 44.336 24.5996 44.3726 24.6744C44.4092 24.7493 44.4469 24.8322 44.4858 24.9232C44.5244 25.0139 44.5624 25.1086 44.599 25.2062C44.6356 25.3043 44.6673 25.399 44.695 25.4912H44.3554C44.3237 25.4037 44.2903 25.315 44.256 25.2252C44.2219 25.1353 44.1868 25.049 44.1516 24.9661C44.1159 24.8832 44.0807 24.8054 44.045 24.7329C44.0098 24.6603 43.977 24.5961 43.9472 24.5412C43.9175 24.5435 43.8878 24.5452 43.8581 24.5463C43.8283 24.5475 43.7989 24.5481 43.7689 24.5481H43.5047L43.2818 25.4912H42.949L43.5119 23.1282C43.6079 23.1052 43.7094 23.0902 43.8172 23.0833C43.9244 23.0767 44.0261 23.0732 44.1222 23.0732ZM44.081 23.3566C43.9186 23.3566 43.8203 23.3612 43.7857 23.3704L43.5696 24.2758H43.7723C43.866 24.2758 43.9621 24.2689 44.0604 24.2551C44.1587 24.2413 44.2485 24.2142 44.3294 24.1739C44.4106 24.1336 44.4769 24.0772 44.5284 24.0046C44.5798 23.9321 44.6058 23.8359 44.6058 23.7162C44.6058 23.5872 44.5572 23.4951 44.46 23.4398C44.3628 23.3842 44.2362 23.3566 44.081 23.3566Z" fill="#4D4D4D"/>
<path fill-rule="evenodd" clip-rule="evenodd" d="M44.9741 25.4912L45.5435 23.0972H46.9464L46.881 23.377H45.8073L45.6358 24.099H46.5894L46.524 24.3719H45.5738L45.3717 25.2114H46.524L46.4585 25.4912H44.9741H44.9741Z" fill="#4D4D4D"/>
<path fill-rule="evenodd" clip-rule="evenodd" d="M9.14091 21.3851C11.6659 21.3851 13.7128 19.3236 13.7128 16.7807C13.7128 14.2377 11.6659 12.1763 9.14091 12.1763C6.6159 12.1763 4.56897 14.2377 4.56897 16.7807C4.56897 19.3236 6.6159 21.3851 9.14091 21.3851ZM11.1567 16.1243C11.2477 15.5114 10.7843 15.1821 10.1508 14.9621L10.3564 14.1316L9.85469 14.0055L9.65459 14.8142C9.52281 14.781 9.38732 14.7497 9.2524 14.7189L9.45392 13.905L8.95254 13.7789L8.74672 14.6092C8.63753 14.5841 8.53033 14.5594 8.42628 14.5332L8.42685 14.5306L7.7348 14.3567L7.60131 14.8965C7.60131 14.8965 7.97349 14.9823 7.96577 14.9877C8.16901 15.039 8.20589 15.1743 8.1996 15.2817L7.96548 16.2274C7.97949 16.2308 7.9975 16.2357 8.0178 16.2444C8.00093 16.2397 7.98321 16.2354 7.96463 16.2308L7.63647 17.5562C7.6116 17.6181 7.54843 17.7114 7.40636 17.676C7.4115 17.6832 7.04161 17.5844 7.04161 17.5844L6.79234 18.1631L7.44523 18.3269C7.56672 18.3574 7.68592 18.3897 7.80283 18.4199L7.5953 19.2596L8.09641 19.3857L8.30222 18.5549C8.43914 18.592 8.57207 18.6269 8.70213 18.6594L8.49717 19.4862L8.99884 19.6123L9.20666 18.7743C10.0625 18.9372 10.706 18.8716 10.9767 18.092C11.1951 17.4641 10.9658 17.1022 10.5156 16.8662C10.8437 16.7902 11.0907 16.5731 11.1567 16.1243ZM10.0102 17.7436C9.85497 18.3712 8.80589 18.0318 8.46572 17.9465L8.74129 16.8342C9.08145 16.9197 10.1723 17.0889 10.0102 17.7436ZM10.1654 16.1154C10.0239 16.686 9.15062 16.3961 8.86734 16.3253L9.11718 15.316C9.40046 15.3874 10.3126 15.5201 10.1654 16.1154Z" fill="#F7931A"/>
</svg>
