<svg width="53" height="37" viewBox="0 0 53 37" fill="none" xmlns="http://www.w3.org/2000/svg">
<rect x="0.5" y="0.5" width="52" height="36" rx="3.5" fill="white" stroke="#F3F3F3"/>
<path fill-rule="evenodd" clip-rule="evenodd" d="M24.1595 18.7371L24.3902 17.2492L23.8762 17.2371H21.4218L23.1275 6.25776C23.1328 6.22451 23.15 6.19365 23.1751 6.17169C23.2003 6.14974 23.2324 6.1377 23.2661 6.1377H27.4046C28.7786 6.1377 29.7268 6.42788 30.2217 7.00073C30.4538 7.26946 30.6016 7.55037 30.6732 7.85937C30.7482 8.18368 30.7494 8.5711 30.6763 9.04371L30.671 9.07808V9.38094L30.9031 9.51443C31.0984 9.61969 31.2538 9.74013 31.3729 9.87801C31.5714 10.1079 31.6998 10.3999 31.7541 10.7461C31.8102 11.1021 31.7916 11.5259 31.6998 12.0057C31.5939 12.5574 31.4227 13.0381 31.1915 13.4313C30.9789 13.7936 30.708 14.0942 30.3863 14.327C30.0792 14.5484 29.7144 14.7163 29.3019 14.8239C28.9021 14.9295 28.4463 14.9828 27.9464 14.9828H27.6243C27.3941 14.9828 27.1704 15.067 26.9948 15.2179C26.8187 15.372 26.7022 15.5825 26.6665 15.8127L26.6422 15.9467L26.2345 18.5692L26.2161 18.6654C26.2111 18.6959 26.2027 18.7111 26.1903 18.7214C26.1794 18.7308 26.1635 18.7371 26.1481 18.7371H24.1595Z" fill="#28356A"/>
<path fill-rule="evenodd" clip-rule="evenodd" d="M31.1229 9.11279C31.1107 9.19296 31.0965 9.27489 31.0807 9.35907C30.5349 12.2037 28.6676 13.1865 26.2829 13.1865H25.0687C24.777 13.1865 24.5312 13.4014 24.4859 13.6934L23.6881 18.8304C23.6586 19.0222 23.8042 19.1949 23.9947 19.1949H26.1483C26.4033 19.1949 26.6199 19.0069 26.6601 18.7516L26.6812 18.6405L27.0867 16.0284L27.1128 15.8851C27.1525 15.6289 27.3696 15.4407 27.6246 15.4407H27.9466C30.0331 15.4407 31.6666 14.5808 32.144 12.0922C32.3433 11.0526 32.2401 10.1846 31.7124 9.57411C31.5528 9.39006 31.3546 9.23725 31.1229 9.11279Z" fill="#298FC2"/>
<path fill-rule="evenodd" clip-rule="evenodd" d="M25.1957 9.12757C25.2226 8.95155 25.3337 8.80777 25.4834 8.73526C25.5517 8.70201 25.6271 8.68369 25.7071 8.68369H28.9508C29.3351 8.68369 29.6938 8.70929 30.0212 8.76298C30.1148 8.77817 30.2056 8.79573 30.2943 8.81543C30.3826 8.8355 30.4686 8.85796 30.552 8.88255C30.5934 8.89509 30.6344 8.90814 30.6746 8.92106C30.8356 8.97526 30.9853 9.03937 31.1233 9.11327C31.2857 8.06204 31.122 7.3463 30.5621 6.69818C29.9448 5.98457 28.8308 5.6792 27.4053 5.6792H23.2666C22.9754 5.6792 22.727 5.89411 22.682 6.18668L20.9583 17.2789C20.9243 17.4983 21.091 17.6963 21.309 17.6963H23.864L25.1957 9.12757Z" fill="#28356A"/>
<path fill-rule="evenodd" clip-rule="evenodd" d="M11.9658 21.7568H8.94832C8.7418 21.7568 8.56619 21.9091 8.53393 22.1162L7.31352 29.9709C7.2893 30.126 7.40757 30.2656 7.56242 30.2656H9.00294C9.20945 30.2656 9.38507 30.1134 9.41732 29.906L9.74643 27.7874C9.7782 27.58 9.95418 27.4277 10.1603 27.4277H11.1155C13.1032 27.4277 14.2503 26.4513 14.55 24.5164C14.6849 23.6698 14.5557 23.0048 14.1651 22.5389C13.7363 22.0275 12.9756 21.7568 11.9658 21.7568ZM12.3137 24.6257C12.1487 25.7249 11.3215 25.7249 10.5216 25.7249H10.0662L10.3857 23.6721C10.4047 23.548 10.5105 23.4567 10.6341 23.4567H10.8428C11.3877 23.4567 11.9017 23.4567 12.1673 23.772C12.3257 23.96 12.3742 24.2396 12.3137 24.6257Z" fill="#28356A"/>
<path fill-rule="evenodd" clip-rule="evenodd" d="M21.0625 24.5311H19.6175C19.4944 24.5311 19.388 24.6224 19.3691 24.7465L19.3051 25.1567L19.2041 25.0081C18.8913 24.5471 18.1937 24.3931 17.4975 24.3931C15.9007 24.3931 14.5369 25.6208 14.2713 27.343C14.1333 28.202 14.3295 29.0235 14.8097 29.5964C15.25 30.123 15.88 30.3426 16.6296 30.3426C17.9162 30.3426 18.6296 29.5028 18.6296 29.5028L18.5652 29.9104C18.541 30.0662 18.6592 30.206 18.8132 30.206H20.1147C20.3217 30.206 20.4965 30.0537 20.5291 29.8463L21.31 24.8258C21.3348 24.6712 21.2169 24.5311 21.0625 24.5311ZM19.0483 27.386C18.9089 28.224 18.2538 28.7865 17.4181 28.7865C16.9985 28.7865 16.6632 28.6499 16.4478 28.3911C16.2342 28.134 16.1532 27.768 16.221 27.3604C16.3513 26.5296 17.0174 25.9486 17.8404 25.9486C18.2507 25.9486 18.5842 26.0871 18.804 26.3481C19.0241 26.6119 19.1114 26.9802 19.0483 27.386Z" fill="#28356A"/>
<path fill-rule="evenodd" clip-rule="evenodd" d="M28.6471 24.6562H27.1949C27.0564 24.6562 26.9263 24.7261 26.8478 24.8431L24.8451 27.8376L23.9962 24.9599C23.9428 24.7798 23.7792 24.6562 23.5938 24.6562H22.167C21.9935 24.6562 21.8731 24.8283 21.9282 24.994L23.5277 29.7587L22.024 31.9136C21.9057 32.0833 22.0248 32.3167 22.2291 32.3167H23.6794C23.8171 32.3167 23.9459 32.2485 24.024 32.134L28.8535 25.0571C28.9691 24.8878 28.8504 24.6562 28.6471 24.6562Z" fill="#28356A"/>
<path fill-rule="evenodd" clip-rule="evenodd" d="M33.4878 21.7568H30.4699C30.2639 21.7568 30.0883 21.9091 30.056 22.1162L28.8356 29.9709C28.8114 30.126 28.9297 30.2656 29.0837 30.2656H30.6323C30.776 30.2656 30.8991 30.1591 30.9216 30.0139L31.268 27.7874C31.2998 27.58 31.4759 27.4277 31.6819 27.4277H32.6367C34.6248 27.4277 35.7715 26.4513 36.0716 24.5164C36.207 23.6698 36.0769 23.0048 35.6864 22.5389C35.2579 22.0275 34.4977 21.7568 33.4878 21.7568ZM33.836 24.6257C33.6713 25.7249 32.844 25.7249 32.0437 25.7249H31.5889L31.9088 23.6721C31.9277 23.548 32.0327 23.4567 32.1567 23.4567H32.3654C32.9098 23.4567 33.4243 23.4567 33.6899 23.772C33.8483 23.96 33.8964 24.2396 33.836 24.6257Z" fill="#298FC2"/>
<path fill-rule="evenodd" clip-rule="evenodd" d="M42.5827 24.5311H41.1386C41.0146 24.5311 40.9092 24.6224 40.8907 24.7465L40.8266 25.1567L40.7252 25.0081C40.4124 24.5471 39.7152 24.3931 39.019 24.3931C37.4222 24.3931 36.0589 25.6208 35.7934 27.343C35.6557 28.202 35.8511 29.0235 36.3311 29.5964C36.7724 30.123 37.4015 30.3426 38.1511 30.3426C39.4377 30.3426 40.1511 29.5028 40.1511 29.5028L40.0867 29.9104C40.0625 30.0662 40.1807 30.206 40.3356 30.206H41.6368C41.8428 30.206 42.0184 30.0537 42.0506 29.8463L42.832 24.8258C42.8558 24.6712 42.7375 24.5311 42.5827 24.5311ZM40.5685 27.386C40.43 28.224 39.7739 28.7865 38.9382 28.7865C38.5195 28.7865 38.1833 28.6499 37.9679 28.3911C37.7545 28.134 37.6741 27.768 37.7411 27.3604C37.8722 26.5296 38.5375 25.9486 39.3605 25.9486C39.7708 25.9486 40.1043 26.0871 40.3241 26.3481C40.545 26.6119 40.6324 26.9802 40.5685 27.386Z" fill="#298FC2"/>
<path fill-rule="evenodd" clip-rule="evenodd" d="M44.1658 21.9728L42.9274 29.9713C42.9031 30.1263 43.0213 30.266 43.1753 30.266H44.4204C44.6274 30.266 44.8029 30.1138 44.8347 29.9064L46.0559 22.052C46.0803 21.897 45.962 21.7568 45.808 21.7568H44.4138C44.2908 21.7572 44.1848 21.8487 44.1658 21.9728Z" fill="#298FC2"/>
</svg>
