<svg width="54" height="37" viewBox="0 0 54 37" fill="none" xmlns="http://www.w3.org/2000/svg">
<rect x="0.5" y="0.5" width="53" height="36" rx="3.5" fill="white" stroke="#F3F3F3"/>
<path d="M23.9758 25.3759H20.3806L22.6293 12.4253H26.2243L23.9758 25.3759Z" fill="#15195A"/>
<path d="M37.0084 12.7418C36.2992 12.4798 35.1745 12.1904 33.7838 12.1904C30.2334 12.1904 27.7333 13.9538 27.718 16.475C27.6885 18.3351 29.508 19.3682 30.8688 19.9884C32.2597 20.6222 32.7326 21.0358 32.7326 21.6007C32.7184 22.4683 31.6086 22.8683 30.5735 22.8683C29.1382 22.8683 28.3691 22.6621 27.2003 22.1794L26.7269 21.9725L26.2238 24.8796C27.067 25.2374 28.6205 25.5549 30.2334 25.5688C34.0057 25.5688 36.4616 23.8327 36.4907 21.1461C36.5051 19.6718 35.5443 18.5422 33.4729 17.6191C32.2155 17.0265 31.4454 16.627 31.4454 16.0207C31.4602 15.4695 32.0968 14.9049 33.5162 14.9049C34.685 14.8773 35.5437 15.139 36.1942 15.4008L36.5194 15.5383L37.0084 12.7418Z" fill="#15195A"/>
<path fill-rule="evenodd" clip-rule="evenodd" d="M43.4439 12.4253H46.2247L49.1251 25.3758H45.7963C45.7963 25.3758 45.4706 23.8878 45.3674 23.4331H40.7515C40.618 23.7773 39.9969 25.3758 39.9969 25.3758H36.2246L41.5648 13.4998C41.9348 12.6593 42.5863 12.4253 43.4439 12.4253ZM43.2224 17.1645C43.2224 17.1645 42.0831 20.044 41.787 20.788H44.7753C44.6275 20.1405 43.9466 17.0406 43.9466 17.0406L43.6954 15.9247C43.5896 16.212 43.4366 16.6071 43.3334 16.8735C43.2634 17.0542 43.2163 17.1757 43.2224 17.1645Z" fill="#15195A"/>
<path fill-rule="evenodd" clip-rule="evenodd" d="M4.80321 12.4253H10.5875C11.3715 12.4526 12.0077 12.6868 12.2147 13.5139L13.4717 19.4636C13.4719 19.4642 13.4721 19.4648 13.4722 19.4653L13.857 21.2564L17.3778 12.4253H21.1794L15.5284 25.3622H11.7266L8.52227 14.1093C7.41666 13.5072 6.15483 13.023 4.74403 12.687L4.80321 12.4253Z" fill="#15195A"/>
</svg>
