<svg width="54" height="36" viewBox="0 0 54 36" fill="none" xmlns="http://www.w3.org/2000/svg">
<rect x="0.5" y="0.5" width="53" height="35" rx="3.5" fill="white" stroke="#F3F3F3"/>
<path d="M31.944 26.0788H22.3068V9.46094H31.944V26.0788Z" fill="#FF5F00"/>
<path d="M22.9242 17.7688C22.9242 14.3978 24.5692 11.395 27.1309 9.45989C25.2576 8.04484 22.8933 7.20024 20.3239 7.20024C14.2411 7.20024 9.31033 11.9319 9.31033 17.7688C9.31033 23.6058 14.2411 28.3374 20.3239 28.3374C22.8933 28.3374 25.2576 27.4928 27.1309 26.0777C24.5692 24.1426 22.9242 21.1398 22.9242 17.7688Z" fill="#EB001B"/>
<path d="M44.9416 17.7688C44.9416 23.6058 40.0108 28.3374 33.928 28.3374C31.3586 28.3374 28.9944 27.4928 27.1204 26.0777C29.6828 24.1426 31.3278 21.1398 31.3278 17.7688C31.3278 14.3978 29.6828 11.395 27.1204 9.45989C28.9944 8.04484 31.3586 7.20024 33.928 7.20024C40.0108 7.20024 44.9416 11.9319 44.9416 17.7688Z" fill="#F79E1B"/>
</svg>
