<svg width="53" height="37" viewBox="0 0 53 37" fill="none" xmlns="http://www.w3.org/2000/svg">
<rect x="0.5" y="0.5" width="52" height="36" rx="3.5" fill="white" stroke="#F3F3F3"/>
<path fill-rule="evenodd" clip-rule="evenodd" d="M28.0127 13.2282L25.4643 13.7943V11.6557L28.0127 11.1001V13.2282ZM33.3127 14.4129C32.3177 14.4129 31.6781 14.8951 31.3227 15.2306L31.1907 14.5806H28.957V26.8042L31.4953 26.2485L31.5055 23.2818C31.871 23.5543 32.4091 23.9422 33.3026 23.9422C35.12 23.9422 36.775 22.4326 36.775 19.1094C36.7649 16.0692 35.0896 14.4129 33.3127 14.4129ZM32.7034 21.6358C32.1044 21.6358 31.749 21.4156 31.5053 21.1431L31.4952 17.2537C31.7592 16.9497 32.1247 16.7401 32.7034 16.7401C33.6274 16.7401 34.267 17.8094 34.267 19.1827C34.267 20.5874 33.6375 21.6358 32.7034 21.6358ZM44.7758 19.2142C44.7758 16.5305 43.5168 14.4129 41.1105 14.4129C38.694 14.4129 37.2319 16.5305 37.2319 19.1933C37.2319 22.3487 38.958 23.9422 41.4354 23.9422C42.6436 23.9422 43.5574 23.6592 44.2478 23.2608V21.1641C43.5574 21.5206 42.7655 21.7407 41.7603 21.7407C40.7754 21.7407 39.9022 21.3843 39.7906 20.1472H44.7555C44.7555 20.0895 44.7591 19.9585 44.7633 19.8075L44.7634 19.807C44.7691 19.6015 44.7758 19.3592 44.7758 19.2142ZM39.7601 18.2183C39.7601 17.0337 40.4607 16.541 41.1003 16.541C41.7197 16.541 42.3796 17.0337 42.3796 18.2183H39.7601ZM25.4643 14.5911H28.0127V23.764H25.4643V14.5911ZM22.5707 14.5911L22.7331 15.3669C23.3322 14.2347 24.5201 14.4653 24.845 14.5911V17.0023C24.5303 16.887 23.5149 16.7402 22.9159 17.5474V23.764H20.3776V14.5911H22.5707ZM17.6565 12.3162L15.1791 12.8613L15.1689 21.2585C15.1689 22.81 16.2959 23.9527 17.7986 23.9527C18.6312 23.9527 19.2404 23.7954 19.5754 23.6067V21.4786C19.2505 21.6149 17.6463 22.0971 17.6463 20.5456V16.824H19.5754V14.5911H17.6463L17.6565 12.3162ZM11.656 16.6877C11.1179 16.6877 10.793 16.845 10.793 17.2538C10.793 17.7002 11.3521 17.8966 12.0458 18.1402C13.1767 18.5374 14.6652 19.0601 14.6715 20.9964C14.6715 22.8729 13.2196 23.9527 11.1077 23.9527C10.2345 23.9527 9.28012 23.7745 8.33587 23.3551V20.8601C9.18874 21.3423 10.265 21.6988 11.1077 21.6988C11.6763 21.6988 12.0824 21.5415 12.0824 21.0593C12.0824 20.5648 11.4763 20.3388 10.7445 20.0659C9.63003 19.6504 8.22418 19.1262 8.22418 17.3796C8.22418 15.5241 9.59487 14.4129 11.656 14.4129C12.4987 14.4129 13.3313 14.5491 14.174 14.8951V17.3587C13.4023 16.9289 12.4276 16.6877 11.656 16.6877Z" fill="#6772E5"/>
</svg>
