<svg width="20" height="20" viewBox="0 0 20 20" fill="none" xmlns="http://www.w3.org/2000/svg">
<path fill-rule="evenodd" clip-rule="evenodd" d="M5.67 0H14.34C17.73 0 20 2.38 20 5.92V14.09C20 17.62 17.73 20 14.34 20H5.67C2.28 20 0 17.62 0 14.09V5.92C0 2.38 2.28 0 5.67 0ZM5.52 11.2C4.86 11.2 4.32 10.66 4.32 10C4.32 9.34 4.86 8.801 5.52 8.801C6.18 8.801 6.72 9.34 6.72 10C6.72 10.66 6.18 11.2 5.52 11.2ZM8.8 10C8.8 10.66 9.34 11.2 10 11.2C10.66 11.2 11.2 10.66 11.2 10C11.2 9.34 10.66 8.801 10 8.801C9.34 8.801 8.8 9.34 8.8 10ZM13.28 10C13.28 10.66 13.82 11.2 14.48 11.2C15.14 11.2 15.67 10.66 15.67 10C15.67 9.34 15.14 8.801 14.48 8.801C13.82 8.801 13.28 9.34 13.28 10Z" fill="#8AD8FF"/>
</svg>
